<svg width="70" height="70" viewBox="0 0 70 70" fill="none" xmlns="http://www.w3.org/2000/svg">
<rect width="70" height="70" rx="16" fill="#D2F1E1"/>
<path opacity="0.8" d="M48.755 20.0901C47.6798 19.9049 46.591 19.8095 45.5 19.8051C41.7776 19.802 38.1327 20.8694 35 22.8801C31.8592 20.8958 28.215 19.8546 24.5 19.8801C23.409 19.8845 22.3202 19.9799 21.245 20.1651C20.8928 20.2258 20.5739 20.4102 20.3456 20.6852C20.1174 20.9603 19.9948 21.3077 20 21.6651V39.6651C19.9968 39.8855 20.0422 40.1039 20.133 40.3047C20.2238 40.5056 20.3577 40.684 20.5253 40.8272C20.6928 40.9704 20.8899 41.0749 21.1024 41.1333C21.315 41.1917 21.5378 41.2026 21.755 41.1651C23.9045 40.7929 26.1068 40.8546 28.2321 41.3467C30.3574 41.8387 32.3627 42.7511 34.13 44.0301L34.31 44.1351H34.475C34.6414 44.2044 34.8198 44.2401 35 44.2401C35.1802 44.2401 35.3587 44.2044 35.525 44.1351H35.69L35.87 44.0301C37.6249 42.7225 39.6245 41.7806 41.7502 41.2601C43.8759 40.7396 46.0845 40.6512 48.245 41.0001C48.4622 41.0376 48.685 41.0267 48.8976 40.9683C49.1101 40.9099 49.3072 40.8054 49.4747 40.6622C49.6423 40.519 49.7762 40.3406 49.867 40.1397C49.9578 39.9389 50.0032 39.7205 50 39.5001V21.5001C49.9844 21.1583 49.8524 20.8321 49.626 20.5757C49.3995 20.3192 49.0922 20.1479 48.755 20.0901ZM33.5 40.0251C30.7248 38.5651 27.6358 37.8031 24.5 37.8051C24.005 37.8051 23.51 37.8051 23 37.8051V22.8051C23.4996 22.7763 24.0004 22.7763 24.5 22.8051C27.7001 22.8015 30.8303 23.7406 33.5 25.5051V40.0251ZM47 37.8651C46.49 37.8651 45.995 37.8651 45.5 37.8651C42.3642 37.8631 39.2752 38.6251 36.5 40.0851V25.5051C39.1697 23.7406 42.2999 22.8015 45.5 22.8051C45.9996 22.7763 46.5004 22.7763 47 22.8051V37.8651ZM48.755 44.0901C47.6798 43.9049 46.591 43.8095 45.5 43.8051C41.7776 43.802 38.1327 44.8694 35 46.8801C31.8673 44.8694 28.2225 43.802 24.5 43.8051C23.409 43.8095 22.3202 43.9049 21.245 44.0901C21.0497 44.121 20.8625 44.1903 20.6941 44.2939C20.5258 44.3975 20.3795 44.5334 20.2638 44.6937C20.1481 44.854 20.0652 45.0356 20.02 45.228C19.9747 45.4205 19.9679 45.62 20 45.8151C20.0762 46.2046 20.3037 46.548 20.6327 46.7701C20.9616 46.9922 21.3652 47.0749 21.755 47.0001C23.9045 46.6279 26.1068 46.6896 28.2321 47.1817C30.3574 47.6737 32.3627 48.5861 34.13 49.8651C34.384 50.0459 34.6881 50.1431 35 50.1431C35.3119 50.1431 35.616 50.0459 35.87 49.8651C37.6373 48.5861 39.6426 47.6737 41.7679 47.1817C43.8932 46.6896 46.0955 46.6279 48.245 47.0001C48.6348 47.0749 49.0384 46.9922 49.3673 46.7701C49.6963 46.548 49.9238 46.2046 50 45.8151C50.0321 45.62 50.0253 45.4205 49.98 45.228C49.9348 45.0356 49.8519 44.854 49.7362 44.6937C49.6205 44.5334 49.4743 44.3975 49.3059 44.2939C49.1375 44.1903 48.9503 44.121 48.755 44.0901Z" fill="#101130"/>
</svg>
