<svg width="70" height="70" viewBox="0 0 70 70" fill="none" xmlns="http://www.w3.org/2000/svg">
<rect width="70" height="70" rx="16" fill="#D2F1E1"/>
<path opacity="0.8" d="M41 38H29C28.6022 38 28.2206 38.158 27.9393 38.4393C27.658 38.7206 27.5 39.1022 27.5 39.5C27.5 39.8978 27.658 40.2794 27.9393 40.5607C28.2206 40.842 28.6022 41 29 41H41C41.3978 41 41.7794 40.842 42.0607 40.5607C42.342 40.2794 42.5 39.8978 42.5 39.5C42.5 39.1022 42.342 38.7206 42.0607 38.4393C41.7794 38.158 41.3978 38 41 38ZM41 32H32C31.6022 32 31.2206 32.158 30.9393 32.4393C30.658 32.7206 30.5 33.1022 30.5 33.5C30.5 33.8978 30.658 34.2794 30.9393 34.5607C31.2206 34.842 31.6022 35 32 35H41C41.3978 35 41.7794 34.842 42.0607 34.5607C42.342 34.2794 42.5 33.8978 42.5 33.5C42.5 33.1022 42.342 32.7206 42.0607 32.4393C41.7794 32.158 41.3978 32 41 32ZM47 23H42.5V21.5C42.5 21.1022 42.342 20.7206 42.0607 20.4393C41.7794 20.158 41.3978 20 41 20C40.6022 20 40.2206 20.158 39.9393 20.4393C39.658 20.7206 39.5 21.1022 39.5 21.5V23H36.5V21.5C36.5 21.1022 36.342 20.7206 36.0607 20.4393C35.7794 20.158 35.3978 20 35 20C34.6022 20 34.2206 20.158 33.9393 20.4393C33.658 20.7206 33.5 21.1022 33.5 21.5V23H30.5V21.5C30.5 21.1022 30.342 20.7206 30.0607 20.4393C29.7794 20.158 29.3978 20 29 20C28.6022 20 28.2206 20.158 27.9393 20.4393C27.658 20.7206 27.5 21.1022 27.5 21.5V23H23C22.6022 23 22.2206 23.158 21.9393 23.4393C21.658 23.7206 21.5 24.1022 21.5 24.5V45.5C21.5 46.6935 21.9741 47.8381 22.818 48.682C23.6619 49.5259 24.8065 50 26 50H44C45.1935 50 46.3381 49.5259 47.182 48.682C48.0259 47.8381 48.5 46.6935 48.5 45.5V24.5C48.5 24.1022 48.342 23.7206 48.0607 23.4393C47.7794 23.158 47.3978 23 47 23ZM45.5 45.5C45.5 45.8978 45.342 46.2794 45.0607 46.5607C44.7794 46.842 44.3978 47 44 47H26C25.6022 47 25.2206 46.842 24.9393 46.5607C24.658 46.2794 24.5 45.8978 24.5 45.5V26H27.5V27.5C27.5 27.8978 27.658 28.2794 27.9393 28.5607C28.2206 28.842 28.6022 29 29 29C29.3978 29 29.7794 28.842 30.0607 28.5607C30.342 28.2794 30.5 27.8978 30.5 27.5V26H33.5V27.5C33.5 27.8978 33.658 28.2794 33.9393 28.5607C34.2206 28.842 34.6022 29 35 29C35.3978 29 35.7794 28.842 36.0607 28.5607C36.342 28.2794 36.5 27.8978 36.5 27.5V26H39.5V27.5C39.5 27.8978 39.658 28.2794 39.9393 28.5607C40.2206 28.842 40.6022 29 41 29C41.3978 29 41.7794 28.842 42.0607 28.5607C42.342 28.2794 42.5 27.8978 42.5 27.5V26H45.5V45.5Z" fill="#101130"/>
</svg>
