<svg width="20" height="20" viewBox="0 0 20 20" fill="#2378FF" xmlns="http://www.w3.org/2000/svg">
<path fill-rule="evenodd" clip-rule="evenodd" d="M11.7677 9.3608H14.0742C14.424 9.3608 14.6988 9.07166 14.6988 8.72299C14.6988 8.36581 14.424 8.08517 14.0742 8.08517H11.7677C11.418 8.08517 11.1432 8.36581 11.1432 8.72299C11.1432 9.07166 11.418 9.3608 11.7677 9.3608ZM16.8138 4.93941C17.3217 4.93941 17.6548 5.118 17.9879 5.5092C18.3209 5.90039 18.3792 6.46167 18.3043 6.97108L17.5132 12.5499C17.3633 13.6222 16.464 14.4123 15.4065 14.4123H6.32195C5.21448 14.4123 4.29853 13.5457 4.20693 12.4231L3.44086 3.15267L2.18351 2.93156C1.85043 2.87203 1.61728 2.54037 1.67557 2.2002C1.73386 1.85237 2.05861 1.62191 2.40001 1.67379L4.38596 1.97909C4.66907 2.03096 4.87724 2.26823 4.90222 2.55738L5.06043 4.46233C5.08541 4.73531 5.30191 4.93941 5.56837 4.93941H16.8138ZM6.18855 15.7564C5.4891 15.7564 4.92287 16.3347 4.92287 17.0491C4.92287 17.7549 5.4891 18.3332 6.18855 18.3332C6.87968 18.3332 7.44591 17.7549 7.44591 17.0491C7.44591 16.3347 6.87968 15.7564 6.18855 15.7564ZM15.5563 15.7564C14.8568 15.7564 14.2906 16.3347 14.2906 17.0491C14.2906 17.7549 14.8568 18.3332 15.5563 18.3332C16.2474 18.3332 16.8136 17.7549 16.8136 17.0491C16.8136 16.3347 16.2474 15.7564 15.5563 15.7564Z" fill="#2378FF"/>
</svg>
