<svg width="20" height="20" viewBox="0 0 20 20" fill="none" xmlns="http://www.w3.org/2000/svg">
<path fill-rule="evenodd" clip-rule="evenodd" d="M13.4653 6.86063C13.4653 8.8187 11.9043 10.3888 9.95752 10.3888C8.01076 10.3888 6.44978 8.8187 6.44978 6.86063C6.44978 4.90181 8.01076 3.33325 9.95752 3.33325C11.9043 3.33325 13.4653 4.90181 13.4653 6.86063ZM9.95752 16.6666C7.0982 16.6666 4.65674 16.2133 4.65674 14.4001C4.65674 12.5861 7.08253 12.1163 9.95752 12.1163C12.8168 12.1163 15.2583 12.5696 15.2583 14.3836C15.2583 16.1968 12.8325 16.6666 9.95752 16.6666ZM14.9642 6.92424C14.9642 7.92242 14.6665 8.85229 14.1442 9.62531C14.0905 9.70487 14.1382 9.81219 14.233 9.8287C14.3636 9.85122 14.4986 9.86398 14.6359 9.86773C16.0051 9.90375 17.2341 9.0174 17.5736 7.68301C18.0765 5.70092 16.5998 3.92147 14.7195 3.92147C14.515 3.92147 14.3195 3.94324 14.1293 3.98226C14.1032 3.98827 14.0756 4.00027 14.0606 4.02354C14.0427 4.05206 14.0562 4.09034 14.0741 4.1151C14.6389 4.91139 14.9642 5.88254 14.9642 6.92424ZM17.2318 11.2604C18.1519 11.4413 18.757 11.8105 19.0077 12.3471C19.2196 12.7877 19.2196 13.2988 19.0077 13.7386C18.6242 14.5709 17.3878 14.8381 16.9073 14.9071C16.808 14.9221 16.7282 14.8358 16.7386 14.736C16.9841 12.4297 15.0314 11.3362 14.5262 11.0848C14.5046 11.0735 14.5001 11.0563 14.5024 11.0458C14.5039 11.0383 14.5128 11.0262 14.5292 11.024C15.6224 11.0037 16.7976 11.1538 17.2318 11.2604ZM5.36425 9.86772C5.50154 9.86397 5.63585 9.85196 5.76718 9.82869C5.86194 9.81218 5.9097 9.70486 5.85597 9.62531C5.33366 8.85229 5.03593 7.92241 5.03593 6.92424C5.03593 5.88253 5.36126 4.91138 5.92611 4.11509C5.94402 4.09033 5.95671 4.05205 5.93955 4.02353C5.92462 4.00102 5.89627 3.98826 5.8709 3.98225C5.67988 3.94323 5.48438 3.92146 5.27993 3.92146C3.39959 3.92146 1.92292 5.70091 2.42658 7.683C2.76609 9.0174 3.99503 9.90374 5.36425 9.86772ZM5.49744 11.0453C5.49968 11.0565 5.49521 11.0731 5.47431 11.0851C4.96841 11.3365 3.01569 12.43 3.26118 14.7355C3.27162 14.8361 3.19253 14.9217 3.09329 14.9074C2.61275 14.8383 1.37635 14.5712 0.992822 13.7389C0.780164 13.2983 0.780164 12.788 0.992822 12.3474C1.24353 11.8108 1.84793 11.4416 2.76796 11.2599C3.20297 11.1541 4.37744 11.004 5.47133 11.0243C5.48774 11.0265 5.49595 11.0385 5.49744 11.0453Z" fill="#F77E53"/>
</svg>
