<svg width="70" height="70" viewBox="0 0 70 70" fill="none" xmlns="http://www.w3.org/2000/svg">
<rect width="70" height="70" rx="16" fill="#D2F1E1"/>
<path opacity="0.8" d="M48.5 38H47V23H48.5C48.8978 23 49.2794 22.842 49.5607 22.5607C49.842 22.2794 50 21.8978 50 21.5C50 21.1022 49.842 20.7206 49.5607 20.4393C49.2794 20.158 48.8978 20 48.5 20H21.5C21.1022 20 20.7206 20.158 20.4393 20.4393C20.158 20.7206 20 21.1022 20 21.5C20 21.8978 20.158 22.2794 20.4393 22.5607C20.7206 22.842 21.1022 23 21.5 23H23V38H21.5C21.1022 38 20.7206 38.158 20.4393 38.4393C20.158 38.7206 20 39.1022 20 39.5C20 39.8978 20.158 40.2794 20.4393 40.5607C20.7206 40.842 21.1022 41 21.5 41H33.5V42.725L26.675 47.225C26.395 47.3983 26.1798 47.659 26.0627 47.9667C25.9455 48.2745 25.9328 48.6122 26.0267 48.9279C26.1205 49.2435 26.3156 49.5195 26.5819 49.7133C26.8482 49.907 27.1708 50.0078 27.5 50C27.7949 50.0034 28.0834 49.9142 28.325 49.745L33.5 46.325V48.5C33.5 48.8978 33.658 49.2794 33.9393 49.5607C34.2206 49.842 34.6022 50 35 50C35.3978 50 35.7794 49.842 36.0607 49.5607C36.342 49.2794 36.5 48.8978 36.5 48.5V46.325L41.675 49.745C41.9166 49.9142 42.2051 50.0034 42.5 50C42.8205 49.9975 43.1317 49.8925 43.3882 49.7002C43.6446 49.508 43.8327 49.2387 43.9249 48.9318C44.0172 48.6249 44.0087 48.2965 43.9007 47.9947C43.7928 47.693 43.591 47.4337 43.325 47.255L36.5 42.755V41H48.5C48.8978 41 49.2794 40.842 49.5607 40.5607C49.842 40.2794 50 39.8978 50 39.5C50 39.1022 49.842 38.7206 49.5607 38.4393C49.2794 38.158 48.8978 38 48.5 38ZM44 38H26V23H44V38ZM31.415 35.39C31.8148 35.6262 32.2706 35.7508 32.735 35.7508C33.1994 35.7508 33.6552 35.6262 34.055 35.39L38.555 32.78C38.9397 32.5439 39.2574 32.2131 39.4779 31.8192C39.6983 31.4252 39.814 30.9814 39.814 30.53C39.814 30.0786 39.6983 29.6348 39.4779 29.2408C39.2574 28.8469 38.9397 28.5161 38.555 28.28L34.055 25.67C33.6552 25.4338 33.1994 25.3092 32.735 25.3092C32.2706 25.3092 31.8148 25.4338 31.415 25.67C31.0121 25.8971 30.6782 26.2289 30.4485 26.6302C30.2187 27.0316 30.1018 27.4876 30.11 27.95V33.17C30.1125 33.6222 30.2345 34.0658 30.4637 34.4556C30.6929 34.8455 31.0211 35.1679 31.415 35.39ZM33.11 28.52L36.5 30.5L33.08 32.48L33.11 28.52Z" fill="#101130"/>
</svg>
