<svg width="70" height="70" viewBox="0 0 70 70" fill="none" xmlns="http://www.w3.org/2000/svg">
<rect width="70" height="70" rx="16" fill="#D2F1E1"/>
<path opacity="0.8" d="M48.5 44.0001H45.5V39.5001C45.5 39.1022 45.342 38.7207 45.0607 38.4394C44.7794 38.1581 44.3978 38.0001 44 38.0001H36.5V33.9351L38.195 34.8201C38.4422 34.9494 38.7205 35.0072 38.9988 34.987C39.277 34.9668 39.5441 34.8695 39.7701 34.7059C39.996 34.5422 40.1718 34.3189 40.2778 34.0608C40.3838 33.8027 40.4157 33.5203 40.37 33.2451L39.77 29.6901L42.35 27.1551C42.5454 26.9642 42.685 26.7237 42.7537 26.4593C42.8225 26.195 42.8177 25.9169 42.74 25.6551C42.6531 25.3885 42.4931 25.1516 42.2784 24.9713C42.0636 24.791 41.8026 24.6745 41.525 24.6351L38 24.0801L36.35 20.8401C36.2272 20.5865 36.0354 20.3726 35.7966 20.2229C35.5579 20.0733 35.2818 19.9939 35 19.9939C34.7182 19.9939 34.4421 20.0733 34.2034 20.2229C33.9646 20.3726 33.7728 20.5865 33.65 20.8401L32 24.0801L28.415 24.6051C28.1374 24.6445 27.8764 24.761 27.6616 24.9413C27.4469 25.1216 27.2869 25.3585 27.2 25.6251C27.1223 25.8869 27.1175 26.165 27.1863 26.4293C27.255 26.6937 27.3946 26.9342 27.59 27.1251L30.23 29.6901L29.63 33.2451C29.5843 33.5203 29.6162 33.8027 29.7222 34.0608C29.8282 34.3189 30.004 34.5422 30.2299 34.7059C30.4559 34.8695 30.723 34.9668 31.0012 34.987C31.2795 35.0072 31.5578 34.9494 31.805 34.8201L33.5 33.9351V38.0001H26C25.6022 38.0001 25.2206 38.1581 24.9393 38.4394C24.658 38.7207 24.5 39.1022 24.5 39.5001V44.0001H21.5C21.1022 44.0001 20.7206 44.1581 20.4393 44.4394C20.158 44.7207 20 45.1022 20 45.5001V48.5001C20 48.8979 20.158 49.2794 20.4393 49.5607C20.7206 49.842 21.1022 50.0001 21.5 50.0001C21.8978 50.0001 22.2794 49.842 22.5607 49.5607C22.842 49.2794 23 48.8979 23 48.5001V47.0001H29V48.5001C29 48.8979 29.158 49.2794 29.4393 49.5607C29.7206 49.842 30.1022 50.0001 30.5 50.0001C30.8978 50.0001 31.2794 49.842 31.5607 49.5607C31.842 49.2794 32 48.8979 32 48.5001V45.5001C32 45.1022 31.842 44.7207 31.5607 44.4394C31.2794 44.1581 30.8978 44.0001 30.5 44.0001H27.5V41.0001H42.5V44.0001H39.5C39.1022 44.0001 38.7206 44.1581 38.4393 44.4394C38.158 44.7207 38 45.1022 38 45.5001V48.5001C38 48.8979 38.158 49.2794 38.4393 49.5607C38.7206 49.842 39.1022 50.0001 39.5 50.0001C39.8978 50.0001 40.2794 49.842 40.5607 49.5607C40.842 49.2794 41 48.8979 41 48.5001V47.0001H47V48.5001C47 48.8979 47.158 49.2794 47.4393 49.5607C47.7206 49.842 48.1022 50.0001 48.5 50.0001C48.8978 50.0001 49.2794 49.842 49.5607 49.5607C49.842 49.2794 50 48.8979 50 48.5001V45.5001C50 45.1022 49.842 44.7207 49.5607 44.4394C49.2794 44.1581 48.8978 44.0001 48.5 44.0001ZM35 29.9451C34.7538 29.9463 34.5117 30.0081 34.295 30.1251L33.095 30.7551L33.32 29.4051C33.3594 29.1663 33.3404 28.9215 33.2646 28.6916C33.1889 28.4618 33.0586 28.2537 32.885 28.0851L31.91 27.1251L33.26 26.9301C33.5015 26.8978 33.7315 26.8072 33.9302 26.666C34.1288 26.5249 34.2901 26.3375 34.4 26.1201L35 24.8901L35.6 26.1201C35.7099 26.3375 35.8712 26.5249 36.0698 26.666C36.2685 26.8072 36.4985 26.8978 36.74 26.9301L38.09 27.1251L37.115 28.0851C36.9414 28.2537 36.8111 28.4618 36.7354 28.6916C36.6596 28.9215 36.6406 29.1663 36.68 29.4051L36.905 30.7551L35.705 30.1251C35.4883 30.0081 35.2462 29.9463 35 29.9451Z" fill="#101130"/>
</svg>
